<svg width="666" height="741" viewBox="0 0 666 741" fill="none" xmlns="http://www.w3.org/2000/svg">
<path d="M334.349 370.924C355.389 370.924 372.446 387.981 372.446 409.02C372.446 430.06 355.389 447.116 334.349 447.116C313.31 447.116 296.254 430.06 296.254 409.02C296.254 387.981 313.31 370.924 334.349 370.924Z" fill="#513D86"/>
<path fill-rule="evenodd" clip-rule="evenodd" d="M226.001 257L441 256.978H522.83C535.551 306.803 558.58 398.341 531.747 457.896C496.296 536.577 379.739 610.765 332.773 638.229C285.808 610.765 169.25 536.577 133.799 457.895C106.966 398.34 129.994 306.804 142.715 256.978L226.001 257ZM334.349 345.715C299.387 345.715 271.044 374.058 271.044 409.02C271.044 437.386 289.701 461.394 315.412 469.444V497.216C315.412 507.375 323.649 515.612 333.808 515.612C343.968 515.612 352.205 507.376 352.205 497.216V469.771C378.473 462.063 397.656 437.782 397.656 409.02C397.656 374.057 369.312 345.715 334.349 345.715Z" fill="#513D86"/>
<path d="M333.5 104.606C372.436 104.606 404 136.17 404 175.106V220.184H263V175.106C263 136.17 294.564 104.607 333.5 104.606Z" fill="#513D86"/>
<path fill-rule="evenodd" clip-rule="evenodd" d="M321.019 1.36017C328.624 -0.450944 336.547 -0.453226 344.153 1.35236L627.273 68.5643C635.047 70.4098 640.963 76.6535 642.234 84.5418C649.183 127.658 670.245 269.157 664.085 365.106C656.68 480.444 640.967 494.103 570.454 573.606C510.913 640.739 378.421 717.826 342.005 738.359C336.089 741.695 329.08 741.695 323.165 738.359C286.748 717.826 154.257 640.739 94.7166 573.606C24.2039 494.103 8.48923 480.444 1.08475 365.106C-5.0794 269.088 16.7219 127.455 23.8816 84.449C25.1865 76.6115 31.0792 70.417 38.8084 68.576L321.019 1.36017ZM333.5 67.6063C274.129 67.6066 226 115.736 226 175.106V220.184H115.215V221.699H114.345C114.254 221.995 62.8416 389.809 101.238 475.03C145.971 574.313 319.844 666.443 320.086 666.571L332.771 673.065L345.461 666.572C345.839 666.372 519.591 574.275 564.306 475.031C602.717 389.779 551.254 221.875 551.2 221.7H550.239V220.184H441V175.106C441 115.736 392.87 67.6063 333.5 67.6063Z" fill="#513D86"/>
</svg>
