<svg width="80" height="80" viewBox="0 0 80 80" fill="none" xmlns="http://www.w3.org/2000/svg">
<g clip-path="url(#clip0_206_4033)">
<path d="M30 38.2857C30 37.1491 30.4683 36.059 31.3017 35.2553C32.1352 34.4515 33.2657 34 34.4444 34H65.5556C66.7343 34 67.8648 34.4515 68.6983 35.2553C69.5317 36.059 70 37.1491 70 38.2857V59.7143C70 60.8509 69.5317 61.941 68.6983 62.7447C67.8648 63.5485 66.7343 64 65.5556 64H34.4444C33.2657 64 32.1352 63.5485 31.3017 62.7447C30.4683 61.941 30 60.8509 30 59.7143V38.2857Z" fill="#EADDFF"/>
<path d="M10 23.3332C10 21.5651 10.7024 19.8694 11.9526 18.6191C13.2029 17.3689 14.8986 16.6665 16.6667 16.6665H63.3333C65.1014 16.6665 66.7971 17.3689 68.0474 18.6191C69.2976 19.8694 70 21.5651 70 23.3332V56.6665C70 58.4346 69.2976 60.1303 68.0474 61.3805C66.7971 62.6308 65.1014 63.3332 63.3333 63.3332H16.6667C14.8986 63.3332 13.2029 62.6308 11.9526 61.3805C10.7024 60.1303 10 58.4346 10 56.6665V23.3332Z" stroke="white" stroke-width="2" stroke-linecap="round" stroke-linejoin="round"/>
<path d="M20 26.6665H20.0333" stroke="white" stroke-linecap="round" stroke-linejoin="round"/>
<path d="M30 26.6665H30.0333" stroke="white" stroke-linecap="round" stroke-linejoin="round"/>
</g>
<defs>
<clipPath id="clip0_206_4033">
<rect width="80" height="80" fill="white"/>
</clipPath>
</defs>
</svg>
