<svg width="666" height="741" viewBox="0 0 666 741" fill="none" xmlns="http://www.w3.org/2000/svg">
<path d="M321.018 1.3607C328.623 -0.450488 336.546 -0.453702 344.152 1.35191L627.273 68.5648C635.047 70.4104 640.962 76.6533 642.233 84.5414C649.182 127.658 670.245 269.157 664.085 365.106C656.68 480.444 640.966 494.102 570.453 573.606C510.912 640.738 378.421 717.826 342.005 738.36C336.089 741.695 329.079 741.695 323.164 738.36C286.747 717.826 154.256 640.738 94.7157 573.606C24.203 494.102 8.48926 480.444 1.08479 365.106C-5.07936 269.088 16.721 127.454 23.8807 84.4486C25.1857 76.6111 31.0792 70.4164 38.8084 68.5755L321.018 1.3607ZM333.5 67.6058C274.129 67.6059 226 115.735 226 175.106V220.184H115.215V221.699H114.345C114.345 221.699 62.8077 389.733 101.238 475.03C145.995 574.364 320.026 666.539 320.086 666.571L332.771 673.065L345.461 666.572C345.867 666.356 519.595 574.266 564.306 475.031C602.727 389.757 551.227 221.787 551.2 221.7H550.239V220.184H441V175.106C441 115.735 392.87 67.6059 333.5 67.6058ZM226 256.978V257.606H441V256.978H522.83C535.551 306.803 558.58 398.34 531.747 457.896C496.296 536.577 379.739 610.764 332.773 638.229C285.808 610.765 169.25 536.577 133.799 457.895C106.966 398.34 129.994 306.803 142.715 256.978H226ZM334.349 345.714C299.387 345.714 271.044 374.057 271.044 409.02C271.044 437.386 289.7 461.393 315.412 469.444V497.215C315.412 507.375 323.648 515.612 333.808 515.612C343.969 515.612 352.205 507.375 352.205 497.215V469.771C378.473 462.063 397.656 437.782 397.656 409.02C397.656 374.057 369.312 345.714 334.349 345.714ZM334.349 370.923C355.389 370.923 372.446 387.98 372.446 409.02C372.446 430.06 355.389 447.116 334.349 447.116C313.31 447.115 296.254 430.059 296.254 409.02C296.254 387.98 313.31 370.923 334.349 370.923ZM333.5 104.606C372.436 104.606 404 136.17 404 175.106V220.184H263V175.106C263 136.17 294.564 104.606 333.5 104.606Z" fill="#434776"/>
</svg>
