<svg width="666" height="741" viewBox="0 0 666 741" fill="none" xmlns="http://www.w3.org/2000/svg">
<path d="M321.018 1.36035C328.623 -0.450833 336.546 -0.454047 344.152 1.35156L627.273 68.5645C635.047 70.4101 640.962 76.653 642.233 84.541C649.182 127.657 670.245 269.156 664.085 365.105C656.68 480.444 640.966 494.102 570.453 573.605C510.912 640.738 378.421 717.826 342.005 738.359C336.089 741.695 329.079 741.695 323.164 738.359C286.747 717.826 154.256 640.738 94.7157 573.605C24.203 494.102 8.4893 480.444 1.08484 365.105C-5.07932 269.087 16.721 127.454 23.8807 84.4482C25.1857 76.6107 31.0792 70.4161 38.8085 68.5752L321.018 1.36035ZM333.5 67.6055C274.129 67.6055 226 115.735 226 175.105V220.184H115.215V221.698H114.345C114.345 221.698 62.8078 389.733 101.238 475.029C145.995 574.364 320.026 666.539 320.086 666.57L332.771 673.064L345.461 666.571C345.867 666.356 519.595 574.266 564.307 475.03C602.727 389.756 551.227 221.787 551.2 221.699H550.239V220.184H441V175.105C441 115.735 392.87 67.6055 333.5 67.6055ZM226 256.978V257.605H441V256.978H522.83C535.551 306.802 558.58 398.34 531.747 457.896C496.296 536.577 379.739 610.764 332.773 638.229C285.808 610.764 169.25 536.576 133.799 457.895C106.966 398.339 129.994 306.803 142.715 256.978H226ZM334.349 345.714C299.387 345.714 271.044 374.057 271.044 409.02C271.044 437.385 289.7 461.393 315.412 469.443V497.215C315.412 507.375 323.648 515.611 333.808 515.611C343.969 515.611 352.205 507.375 352.205 497.215V469.771C378.473 462.062 397.656 437.782 397.656 409.02C397.656 374.057 369.312 345.714 334.349 345.714ZM334.349 370.923C355.389 370.923 372.446 387.98 372.446 409.02C372.446 430.059 355.389 447.115 334.349 447.115C313.31 447.115 296.254 430.059 296.254 409.02C296.254 387.98 313.31 370.923 334.349 370.923ZM333.5 104.605C372.436 104.606 404 136.169 404 175.105V220.184H263V175.105C263 136.169 294.564 104.606 333.5 104.605Z" fill="#B9A2F7"/>
</svg>
