<svg width="32" height="32" viewBox="0 0 32 32" fill="none" xmlns="http://www.w3.org/2000/svg">
<path d="M17 5C17 4.73478 17.1054 4.48043 17.2929 4.29289C17.4804 4.10536 17.7348 4 18 4H26C26.2652 4 26.5196 4.10536 26.7071 4.29289C26.8946 4.48043 27 4.73478 27 5L27 27C27 27.2652 26.8946 27.5196 26.7071 27.7071C26.5196 27.8946 26.2652 28 26 28H18C17.7348 28 17.4804 27.8946 17.2929 27.7071C17.1054 27.5196 17 27.2652 17 27C17 26.7348 17.1054 26.4804 17.2929 26.2929C17.4804 26.1054 17.7348 26 18 26H25L25 6H18C17.7348 6 17.4804 5.89464 17.2929 5.70711C17.1054 5.51957 17 5.26522 17 5ZM3.2925 16.7075L8.2925 21.7075C8.48014 21.8951 8.73464 22.0006 9 22.0006C9.26536 22.0006 9.51986 21.8951 9.7075 21.7075C9.89514 21.5199 10.0006 21.2654 10.0006 21C10.0006 20.7346 9.89514 20.4801 9.7075 20.2925L6.41375 17H18C18.2652 17 18.5196 16.8946 18.7071 16.7071C18.8946 16.5196 19 16.2652 19 16C19 15.7348 18.8946 15.4804 18.7071 15.2929C18.5196 15.1054 18.2652 15 18 15H6.41375L9.7075 11.7075C9.89514 11.5199 10.0006 11.2654 10.0006 11C10.0006 10.7346 9.89514 10.4801 9.7075 10.2925C9.51986 10.1049 9.26536 9.99944 9 9.99944C8.73464 9.99944 8.48014 10.1049 8.2925 10.2925L3.2925 15.2925C3.19952 15.3854 3.12576 15.4957 3.07544 15.6171C3.02512 15.7385 2.99921 15.8686 2.99921 16C2.99921 16.1314 3.02512 16.2615 3.07544 16.3829C3.12576 16.5043 3.19952 16.6146 3.2925 16.7075Z" fill="#FFFBFE"/>
</svg>
