<svg width="42" height="44" viewBox="0 0 42 44" fill="none" xmlns="http://www.w3.org/2000/svg">
<path d="M27.6434 15.2388L26.8041 34.2239M15.1958 34.2239L14.3567 15.2388M38.5215 8.46867C39.3505 8.57761 40.1767 8.69417 41 8.81825M38.5215 8.46867L35.9328 37.7522C35.7142 40.2249 33.3445 42.1344 30.4943 42.1344H11.5056C8.65542 42.1344 6.28575 40.2249 6.06715 37.7522L3.47842 8.46867M38.5215 8.46867C35.7423 8.10346 32.9309 7.82377 30.0909 7.6328M3.47842 8.46867C2.64938 8.57761 1.8232 8.69417 1 8.81825M3.47842 8.46867C6.25765 8.10346 9.06907 7.82377 11.9091 7.6328M30.0909 7.6328V5.70027C30.0909 3.21244 27.8832 1.13549 25.0257 1.05594C23.689 1.01875 22.3469 1 21 1C19.6531 1 18.311 1.01875 16.9743 1.05594C14.1167 1.13549 11.9091 3.21244 11.9091 5.70027V7.6328M30.0909 7.6328C27.0912 7.4311 24.0594 7.32837 21 7.32837C17.9406 7.32837 14.9089 7.4311 11.9091 7.6328" stroke="#6750A4" stroke-width="2" stroke-linecap="round" stroke-linejoin="round"/>
</svg>
