<svg width="32" height="32" viewBox="0 0 32 32" fill="none" xmlns="http://www.w3.org/2000/svg">
<g clip-path="url(#clip0_206_2615)">
<circle cx="20.0002" cy="21.3332" r="6.66667" fill="#6750A4"/>
<path d="M4 16C4 17.5759 4.31039 19.1363 4.91345 20.5922C5.5165 22.0481 6.40042 23.371 7.51472 24.4853C8.62902 25.5996 9.95189 26.4835 11.4078 27.0866C12.8637 27.6896 14.4241 28 16 28C17.5759 28 19.1363 27.6896 20.5922 27.0866C22.0481 26.4835 23.371 25.5996 24.4853 24.4853C25.5996 23.371 26.4835 22.0481 27.0866 20.5922C27.6896 19.1363 28 17.5759 28 16C28 14.4241 27.6896 12.8637 27.0866 11.4078C26.4835 9.95189 25.5996 8.62902 24.4853 7.51472C23.371 6.40042 22.0481 5.5165 20.5922 4.91345C19.1363 4.31039 17.5759 4 16 4C14.4241 4 12.8637 4.31039 11.4078 4.91345C9.95189 5.5165 8.62902 6.40042 7.51472 7.51472C6.40042 8.62902 5.5165 9.95189 4.91345 11.4078C4.31039 12.8637 4 14.4241 4 16Z" stroke="#FFFBFE" stroke-linecap="round" stroke-linejoin="round"/>
<path d="M16 22.6665V22.6798" stroke="#FFFBFE" stroke-linecap="round" stroke-linejoin="round"/>
<path d="M16.0002 18.0001C15.9756 17.5672 16.0924 17.1381 16.3329 16.7774C16.5733 16.4167 16.9245 16.1439 17.3335 16.0001C17.8347 15.8084 18.2845 15.503 18.6476 15.108C19.0107 14.713 19.2771 14.239 19.4259 13.7235C19.5747 13.208 19.6018 12.665 19.5051 12.1372C19.4084 11.6094 19.1905 11.1113 18.8686 10.6821C18.5466 10.2528 18.1295 9.90417 17.6499 9.66355C17.1703 9.42293 16.6414 9.29691 16.1049 9.29542C15.5683 9.29394 15.0387 9.41702 14.5578 9.65497C14.0769 9.89293 13.6578 10.2393 13.3335 10.6667" stroke="#FFFBFE" stroke-linecap="round" stroke-linejoin="round"/>
</g>
<defs>
<clipPath id="clip0_206_2615">
<rect width="32" height="32" fill="white"/>
</clipPath>
</defs>
</svg>
