<svg width="32" height="32" viewBox="0 0 32 32" fill="none" xmlns="http://www.w3.org/2000/svg">
<g clip-path="url(#clip0_206_2608)">
<path d="M12 15.3144C12 14.8597 12.1873 14.4237 12.5207 14.1022C12.8541 13.7807 13.3063 13.6001 13.7778 13.6001H26.2222C26.6937 13.6001 27.1459 13.7807 27.4793 14.1022C27.8127 14.4237 28 14.8597 28 15.3144V23.8858C28 24.3405 27.8127 24.7765 27.4793 25.098C27.1459 25.4195 26.6937 25.6001 26.2222 25.6001H13.7778C13.3063 25.6001 12.8541 25.4195 12.5207 25.098C12.1873 24.7765 12 24.3405 12 23.8858V15.3144Z" fill="#6750A4"/>
<path d="M4 9.33317C4 8.62593 4.28095 7.94765 4.78105 7.44755C5.28115 6.94746 5.95942 6.6665 6.66667 6.6665H25.3333C26.0406 6.6665 26.7189 6.94746 27.219 7.44755C27.719 7.94765 28 8.62593 28 9.33317V22.6665C28 23.3737 27.719 24.052 27.219 24.5521C26.7189 25.0522 26.0406 25.3332 25.3333 25.3332H6.66667C5.95942 25.3332 5.28115 25.0522 4.78105 24.5521C4.28095 24.052 4 23.3737 4 22.6665V9.33317Z" stroke="#FFFBFE" stroke-linecap="round" stroke-linejoin="round"/>
<path d="M8 10.6665H8.01333" stroke="#FFFBFE" stroke-linecap="round" stroke-linejoin="round"/>
<path d="M12 10.6665H12.0133" stroke="#FFFBFE" stroke-linecap="round" stroke-linejoin="round"/>
</g>
<defs>
<clipPath id="clip0_206_2608">
<rect width="32" height="32" fill="white"/>
</clipPath>
</defs>
</svg>
