<svg width="32" height="32" viewBox="0 0 32 32" fill="none" xmlns="http://www.w3.org/2000/svg">
<g clip-path="url(#clip0_206_2606)">
<path d="M16 22.1089C16 21.7617 16.137 21.4287 16.3808 21.1832C16.6246 20.9377 16.9552 20.7998 17.3 20.7998H25.1C25.4448 20.7998 25.7754 20.9377 26.0192 21.1832C26.263 21.4287 26.4 21.7617 26.4 22.1089V26.6907C26.4 27.0379 26.263 27.3709 26.0192 27.6164C25.7754 27.8619 25.4448 27.9998 25.1 27.9998H17.3C16.9552 27.9998 16.6246 27.8619 16.3808 27.6164C16.137 27.3709 16 27.0379 16 26.6907V22.1089Z" fill="#6750A4"/>
<path d="M5.3335 16.0002C5.3335 15.2929 5.61445 14.6146 6.11454 14.1145C6.61464 13.6144 7.29292 13.3335 8.00016 13.3335H24.0002C24.7074 13.3335 25.3857 13.6144 25.8858 14.1145C26.3859 14.6146 26.6668 15.2929 26.6668 16.0002V25.3335C26.6668 26.0407 26.3859 26.719 25.8858 27.2191C25.3857 27.7192 24.7074 28.0002 24.0002 28.0002H8.00016C7.29292 28.0002 6.61464 27.7192 6.11454 27.2191C5.61445 26.719 5.3335 26.0407 5.3335 25.3335V16.0002Z" stroke="#FFFBFE" stroke-linecap="round" stroke-linejoin="round"/>
<path d="M9.3335 13.3333V10.8507C9.3335 7.06667 12.3188 4 16.0002 4C19.6815 4 22.6668 7.06667 22.6668 10.8507V13.3333" stroke="#FFFBFE" stroke-linecap="round" stroke-linejoin="round"/>
<path d="M13.98 23.4361C14.4293 23.8228 14.9133 24.0001 16 24.0001H16.5507C16.9813 24.0001 17.3947 23.8228 17.7 23.5095C18.0059 23.1924 18.1761 22.7687 18.1747 22.3281C18.1747 21.8855 18.004 21.4615 17.7 21.1468C17.551 20.9923 17.3725 20.8692 17.1751 20.7849C16.9777 20.7007 16.7653 20.6569 16.5507 20.6561H15.4493C15.235 20.6556 15.0229 20.6121 14.8257 20.528C14.6285 20.444 14.4501 20.3211 14.3013 20.1668C13.9955 19.8498 13.8252 19.426 13.8267 18.9855C13.8267 18.5428 13.9973 18.1175 14.3013 17.8041C14.45 17.6496 14.6283 17.5265 14.8255 17.4422C15.0227 17.3579 15.2349 17.3141 15.4493 17.3135H16C17.088 17.3135 17.5707 17.4908 18.02 17.8775" stroke="#FFFBFE" stroke-linecap="round" stroke-linejoin="round"/>
</g>
<defs>
<clipPath id="clip0_206_2606">
<rect width="32" height="32" fill="white"/>
</clipPath>
</defs>
</svg>
