<svg width="32" height="32" viewBox="0 0 32 32" fill="none" xmlns="http://www.w3.org/2000/svg">
<g clip-path="url(#clip0_206_2607)">
<path d="M13.3335 6.66667C13.3335 7.37391 13.6144 8.05219 14.1145 8.55228C14.6146 9.05238 15.2929 9.33333 16.0002 9.33333C16.7074 9.33333 17.3857 9.05238 17.8858 8.55228C18.3859 8.05219 18.6668 7.37391 18.6668 6.66667C18.6668 5.95942 18.3859 5.28115 17.8858 4.78105C17.3857 4.28095 16.7074 4 16.0002 4C15.2929 4 14.6146 4.28095 14.1145 4.78105C13.6144 5.28115 13.3335 5.95942 13.3335 6.66667Z" stroke="#FFFBFE" stroke-linecap="round" stroke-linejoin="round"/>
<path d="M26.6664 16.6665V22.9998C26.6752 23.148 26.6501 23.2962 26.5931 23.4332C26.5041 23.6476 26.3388 23.8215 26.1291 23.9212L18.8464 27.3612C17.9563 27.7815 16.9841 27.9995 15.9998 27.9995C15.0154 27.9995 14.0432 27.7815 13.1531 27.3612L5.87043 23.9212C5.69857 23.8397 5.55545 23.708 5.45999 23.5436C5.36453 23.3791 5.32121 23.1895 5.33576 22.9998V16.6665" stroke="#FFFBFE" stroke-linecap="round" stroke-linejoin="round"/>
<path d="M5.90829 16.2881L13.4203 13.1788C15.0725 12.4958 16.9281 12.4958 18.5803 13.1788L26.0923 16.2881C26.2587 16.3561 26.4016 16.4712 26.5035 16.6193C26.6054 16.7675 26.6618 16.9421 26.6657 17.1218C26.6697 17.3016 26.6211 17.4785 26.5258 17.631C26.4306 17.7835 26.2929 17.9048 26.1296 17.9801L18.847 21.3708C17.9552 21.7854 16.9837 22.0002 16.0003 22.0002C15.0169 22.0002 14.0454 21.7854 13.1536 21.3708L5.87096 17.9801C5.70681 17.9054 5.56818 17.7843 5.47225 17.6316C5.37632 17.4789 5.3273 17.3014 5.33128 17.1211C5.33525 16.9408 5.39204 16.7657 5.49461 16.6174C5.59718 16.4691 5.74101 16.3554 5.90829 16.2881Z" fill="#6750A4"/>
<path d="M5.9078 16.2881L13.4198 13.1788C15.072 12.4958 16.9276 12.4958 18.5798 13.1788L26.0918 16.2881C26.2582 16.3561 26.4011 16.4712 26.503 16.6193C26.6049 16.7675 26.6613 16.9421 26.6652 17.1218C26.6692 17.3016 26.6206 17.4785 26.5253 17.631C26.4301 17.7835 26.2924 17.9048 26.1291 17.9801L18.8465 21.3708C17.9547 21.7854 16.9832 22.0002 15.9998 22.0002C15.0164 22.0002 14.0449 21.7854 13.1531 21.3708L5.87047 17.9801C5.70632 17.9054 5.56769 17.7843 5.47176 17.6316C5.37583 17.4789 5.32682 17.3014 5.33079 17.1211C5.33477 16.9408 5.39156 16.7657 5.49412 16.6174C5.59669 16.4691 5.74053 16.3554 5.9078 16.2881Z" stroke="#FFFBFE" stroke-linecap="round" stroke-linejoin="round"/>
<path d="M16 9.3335V17.3335" stroke="#FFFBFE" stroke-linecap="round" stroke-linejoin="round"/>
</g>
<defs>
<clipPath id="clip0_206_2607">
<rect width="32" height="32" fill="white"/>
</clipPath>
</defs>
</svg>
